<mxfile host="app.diagrams.net" modified="2023-04-13T06:46:20.787Z" agent="Mozilla/5.0 (Windows NT 10.0; Win64; x64) AppleWebKit/537.36 (KHTML, like Gecko) Chrome/111.0.0.0 Safari/537.36" version="21.1.5" etag="DVv4pDbfNWSQ1S1-hSpP" type="github">
  <diagram name="Page-1" id="-nM3ZxJoDgE-OkoB2WOJ">
    <mxGraphModel>
      <root>
        <mxCell id="0" />
        <mxCell id="1" parent="0" />
      </root>
    </mxGraphModel>
  </diagram>
</mxfile>
